<svg width="406" height="240" viewBox="0 0 406 240" fill="none" xmlns="http://www.w3.org/2000/svg">
<path d="M25.8478 195.247C25.2114 193.363 25.4744 191.26 26.5791 189.403C27.6837 187.545 29.5395 186.084 31.7381 185.342L34.1067 184.542C36.3054 183.799 38.6668 183.836 40.6715 184.643C42.6762 185.451 44.16 186.963 44.7964 188.848C45.403 190.356 45.503 192.021 45.0814 193.591C44.6598 195.161 43.7395 196.552 42.459 197.553C41.236 198.725 40.4247 200.439 40.1474 202.436C39.8701 204.434 40.1418 206.607 40.9214 208.628" stroke="#E6E6E6" stroke-width="5" stroke-linecap="round" stroke-linejoin="round"/>
<path d="M44.121 218.102L44.1293 218.126" stroke="#E6E6E6" stroke-width="5" stroke-linecap="round" stroke-linejoin="round"/>
<path d="M64.5417 55.3036C65.3499 52.6768 67.3424 50.5321 70.0809 49.3414C72.8194 48.1507 76.0796 48.0116 79.1442 48.9545L82.4457 49.9703C85.5103 50.9132 88.1283 52.861 89.7239 55.3852C91.3194 57.9094 91.7617 60.8032 90.9534 63.43C90.4155 65.6109 89.1835 67.558 87.4429 68.9779C85.7024 70.3978 83.5476 71.2138 81.3031 71.3028C78.9855 71.6292 76.6922 72.8955 74.7684 74.9109C72.8447 76.9263 71.3947 79.5817 70.6369 82.4771" stroke="#E6E6E6" stroke-width="6.90842" stroke-linecap="round" stroke-linejoin="round"/>
<path d="M66.5737 95.6829L66.5634 95.7166" stroke="#E6E6E6" stroke-width="6.90842" stroke-linecap="round" stroke-linejoin="round"/>
<g clip-path="url(#clip0_601_124)">
<path d="M161.11 148.11C161.11 144.568 162.751 141.172 165.673 138.667C168.594 136.163 172.557 134.756 176.689 134.756H181.14C185.272 134.756 189.235 136.163 192.156 138.667C195.078 141.172 196.719 144.568 196.719 148.11C196.883 151 196.104 153.865 194.498 156.273C192.892 158.682 190.548 160.503 187.817 161.463C185.086 162.744 182.741 165.172 181.136 168.384C179.53 171.595 178.751 175.415 178.914 179.268" stroke="#E6E6E6" stroke-width="8.9024" stroke-linecap="round" stroke-linejoin="round"/>
<path d="M178.914 197.073V197.119" stroke="#E6E6E6" stroke-width="8.9024" stroke-linecap="round" stroke-linejoin="round"/>
</g>
<path d="M219.162 53.0464C218.477 51.1789 218.686 49.0705 219.743 47.1851C220.799 45.2996 222.617 43.7917 224.796 42.9929L227.143 42.1323C229.322 41.3335 231.683 41.3093 233.708 42.0651C235.733 42.8208 237.255 44.2945 237.94 46.1621C238.585 47.6544 238.728 49.3159 238.347 50.8963C237.966 52.4768 237.081 53.8906 235.827 54.9249C234.635 56.1279 233.868 57.8619 233.642 59.8657C233.416 61.8695 233.743 64.0346 234.575 66.0349" stroke="#E6E6E6" stroke-width="5" stroke-linecap="round" stroke-linejoin="round"/>
<path d="M238.017 75.4237L238.026 75.4478" stroke="#E6E6E6" stroke-width="5" stroke-linecap="round" stroke-linejoin="round"/>
<path d="M291.407 151.902C291.756 149.944 292.998 148.227 294.86 147.13C296.722 146.033 299.052 145.645 301.336 146.052L303.798 146.49C306.082 146.897 308.135 148.065 309.504 149.737C310.873 151.409 311.446 153.449 311.098 155.407C310.904 157.022 310.191 158.529 309.066 159.703C307.941 160.876 306.465 161.653 304.861 161.915C303.225 162.354 301.689 163.466 300.485 165.084C299.281 166.702 298.474 168.737 298.186 170.884" stroke="#E6E6E6" stroke-width="5" stroke-linecap="round" stroke-linejoin="round"/>
<path d="M296.433 180.729L296.429 180.754" stroke="#E6E6E6" stroke-width="5" stroke-linecap="round" stroke-linejoin="round"/>
<path d="M336.89 39.5501C337.819 36.6103 340.073 34.2213 343.155 32.9088C346.237 31.5964 349.895 31.4679 353.325 32.5516L357.02 33.7191C360.45 34.8029 363.37 37.0101 365.139 39.8552C366.907 42.7004 367.379 45.9503 366.45 48.8902C365.828 51.3322 364.429 53.5059 362.465 55.084C360.5 56.6621 358.076 57.5592 355.557 57.64C352.955 57.9865 350.371 59.3876 348.196 61.6321C346.021 63.8767 344.372 66.8431 343.497 70.0847" stroke="#E6E6E6" stroke-width="7.75" stroke-linecap="round" stroke-linejoin="round"/>
<path d="M338.827 84.8645L338.816 84.9017" stroke="#E6E6E6" stroke-width="7.75" stroke-linecap="round" stroke-linejoin="round"/>
<defs>
<clipPath id="clip0_601_124">
<rect width="106.829" height="106.829" fill="white" transform="translate(125.5 112.5)"/>
</clipPath>
</defs>
</svg>
